<?xml version="1.0" standalone="no"?>
<!DOCTYPE svg PUBLIC "-//W3C//DTD SVG 20010904//EN"
 "http://www.w3.org/TR/2001/REC-SVG-20010904/DTD/svg10.dtd">
<svg version="1.0" xmlns="http://www.w3.org/2000/svg"
 width="512.000000pt" height="512.000000pt" viewBox="0 0 512.000000 512.000000"
 preserveAspectRatio="xMidYMid meet">
<metadata>
Created by potrace 1.11, written by Peter Selinger 2001-2013
</metadata>
<g transform="translate(0.000000,512.000000) scale(0.100000,-0.100000)"
fill="#000000" stroke="none">
<path d="M2564 5098 c-4 -7 41 -57 117 -129 72 -69 126 -114 130 -108 4 8 9 7
15 -2 4 -7 3 -14 -4 -17 -17 -5 -15 -27 3 -42 8 -7 15 -17 15 -22 0 -5 -14 2
-31 16 -17 14 -34 26 -39 26 -26 0 -15 -26 32 -75 29 -31 53 -63 53 -72 0 -9
8 -21 18 -27 16 -9 27 -2 73 49 30 33 53 63 51 66 -3 10 -411 349 -419 349 -4
0 -10 -5 -14 -12z m361 -326 c-7 -8 -65 30 -60 39 4 5 18 0 34 -13 16 -13 27
-24 26 -26z"/>
<path d="M2205 4951 c-3 -10 -1 -40 6 -65 l11 -46 28 38 c31 42 31 43 -10 72
-28 20 -29 20 -35 1z"/>
<path d="M2019 4841 c-12 -10 -23 -28 -25 -42 -1 -13 -15 -51 -30 -84 -23 -49
-29 -56 -32 -37 -5 29 -29 39 -49 20 -13 -14 -11 -18 21 -37 51 -32 36 -55
-46 -67 -20 -3 -28 1 -33 17 -7 20 -9 19 -41 -12 l-34 -33 -39 38 c-34 33 -39
35 -45 19 -8 -18 -30 -136 -47 -248 -12 -79 -15 -85 -39 -85 -11 0 -20 -5 -20
-10 0 -7 -20 -10 -47 -9 -36 1 -58 9 -86 31 -21 17 -40 28 -42 26 -2 -1 -12
-26 -23 -53 -11 -28 -26 -49 -32 -47 -7 1 -9 -3 -7 -10 21 -49 29 -90 21 -98
-17 -16 -64 -23 -64 -9 0 8 -5 5 -14 -6 -13 -18 -15 -18 -41 -1 -24 16 -26 22
-21 59 15 106 14 125 -6 119 -26 -6 -23 5 18 64 23 33 41 51 50 47 8 -3 14 -1
14 3 -1 10 -125 104 -138 104 -5 0 -38 -44 -74 -98 l-65 -98 40 -17 c32 -13
38 -20 31 -34 -5 -10 -8 -72 -7 -138 2 -135 -7 -118 104 -200 43 -31 63 -39
97 -40 23 0 42 -3 42 -6 0 -3 8 -14 19 -25 10 -12 22 -35 26 -52 6 -28 4 -32
-15 -32 -11 0 -61 27 -111 61 -50 33 -92 59 -93 57 -32 -44 -46 -82 -46 -128
0 -41 -4 -55 -22 -71 l-23 -18 23 -1 c32 0 27 -19 -10 -35 -31 -14 -32 -15
-11 -21 24 -7 24 -22 2 -82 -5 -13 -9 -32 -9 -42 0 -20 80 -160 92 -160 14 0
58 55 58 73 0 11 11 32 24 48 l25 29 56 -66 c31 -36 55 -70 53 -75 -2 -4 -71
-61 -153 -126 -204 -160 -245 -195 -239 -204 2 -4 25 -11 49 -15 25 -3 45 -10
45 -15 0 -5 -13 -36 -30 -69 -16 -33 -30 -61 -30 -64 0 -2 9 -6 20 -9 17 -4
18 -9 9 -35 -10 -28 -13 -30 -36 -21 -14 5 -27 8 -28 7 -1 -2 -20 -34 -43 -73
-48 -82 -60 -65 116 -167 109 -62 123 -73 102 -78 -23 -5 -26 -11 -21 -40 2
-15 27 -12 41 5 7 8 16 15 21 15 5 0 9 -88 9 -196 l0 -195 73 7 c39 3 73 7 74
8 2 1 -1 17 -6 34 -9 31 -9 32 16 26 26 -7 26 -7 10 17 -22 31 -21 52 3 74 19
17 21 17 40 0 11 -10 17 -21 14 -26 -10 -17 -64 -281 -59 -290 4 -5 14 -9 23
-9 9 0 34 -5 55 -11 29 -8 40 -18 52 -46 8 -19 15 -40 15 -45 0 -5 -28 -7 -65
-4 l-64 5 -5 -32 c-3 -18 -10 -81 -16 -142 -23 -227 -20 -216 -41 -210 -15 5
-19 1 -19 -18 0 -13 -12 -34 -26 -48 -14 -13 -35 -36 -45 -51 l-19 -27 40
-142 c44 -157 45 -151 -27 -170 -38 -10 -43 -15 -43 -40 0 -21 -12 -39 -47
-72 -27 -24 -68 -62 -93 -84 l-45 -41 23 -24 c30 -33 28 -41 -7 -24 -28 15
-30 14 -45 -9 -14 -22 -14 -28 13 -93 l28 -69 -43 -26 c-24 -15 -46 -22 -49
-17 -11 17 -23 11 -18 -9 3 -10 0 -22 -6 -26 -8 -4 -5 -16 9 -35 19 -27 23
-28 53 -18 17 6 39 16 47 23 40 32 46 27 98 -83 28 -59 52 -113 54 -121 2 -8
-23 -24 -67 -43 -38 -17 -74 -34 -79 -38 -5 -5 5 -26 23 -49 18 -23 29 -41 25
-41 -4 0 -29 14 -56 30 -54 33 -60 35 -90 19 -20 -11 -20 -11 3 -35 l22 -24
1679 0 1679 0 -87 77 c-66 60 -82 79 -68 82 11 2 55 11 99 20 93 19 89 4 47
176 l-27 110 -73 6 c-108 10 -112 13 -73 53 18 19 30 39 27 44 -3 6 -2 22 4
36 7 20 17 26 42 27 30 0 28 3 -27 24 -51 20 -61 27 -66 54 -4 19 -1 38 7 50
13 18 11 20 -16 26 -16 4 -30 12 -30 18 0 6 11 49 25 95 21 67 29 82 43 78 9
-3 35 -8 57 -11 22 -4 47 -9 57 -11 12 -4 18 5 23 38 3 24 9 52 12 63 3 14
-10 5 -44 -27 l-49 -48 -88 89 c-62 62 -87 94 -83 105 7 19 -9 22 -16 4 -4
-10 -8 -9 -16 2 -15 22 -13 70 3 76 12 5 8 20 -18 82 -18 42 -38 96 -46 120
-12 38 -16 43 -37 37 -21 -5 -23 -3 -14 14 12 22 15 64 5 74 -4 4 -20 -1 -35
-10 -21 -13 -29 -25 -29 -45 0 -34 -3 -34 -47 -7 -41 26 -45 22 -62 -57 -7
-30 -15 -54 -19 -54 -4 0 -23 5 -42 10 -32 9 -41 22 -120 170 -47 88 -88 160
-91 160 -3 0 -14 -7 -25 -15 -10 -8 -21 -15 -24 -15 -3 0 -4 29 -2 64 3 57 1
66 -17 76 -12 6 -21 7 -21 3 0 -4 -4 -1 -10 7 -7 12 -18 10 -70 -15 -33 -16
-59 -34 -58 -40 4 -15 116 -115 129 -115 5 0 8 -4 4 -10 -7 -12 41 -44 55 -35
5 3 10 1 10 -4 0 -6 7 -11 15 -11 21 0 19 -14 -5 -35 -20 -18 -21 -18 -39 1
-9 10 -57 63 -105 116 l-88 97 -39 -19 c-38 -20 -38 -20 -49 -1 -5 11 -10 48
-10 82 0 60 1 63 41 97 38 32 40 37 24 48 -16 12 -15 17 20 63 20 28 34 51 30
51 -4 0 -49 -32 -101 -71 -52 -40 -96 -70 -97 -68 -77 105 -78 107 -71 148 4
23 11 41 16 41 14 0 49 -20 72 -41 11 -11 22 -19 25 -20 3 0 25 -2 48 -4 38
-3 44 0 62 28 11 18 17 35 13 38 -4 3 -36 18 -72 34 -36 15 -112 50 -170 77
-95 45 -174 78 -188 78 -11 0 32 -40 49 -45 11 -4 19 -13 19 -21 0 -9 10 -14
28 -14 41 0 54 -13 47 -43 -5 -20 -3 -28 9 -33 22 -8 10 -24 -18 -24 -19 0
-32 -20 -84 -125 l-62 -125 -128 64 c-70 35 -179 92 -241 125 -63 34 -120 61
-126 61 -6 0 -26 36 -45 81 -27 65 -40 85 -70 104 -33 21 -61 30 -82 26 -4 0
0 -24 8 -53 9 -28 13 -64 10 -79 -3 -17 -1 -29 7 -32 7 -2 9 -8 5 -12 -5 -5
-19 -3 -32 3 -21 10 -26 8 -31 -8 -7 -21 -19 -23 -70 -10 -28 6 -37 -1 -151
-113 -70 -69 -127 -117 -133 -113 -17 11 -14 66 4 66 12 0 15 13 15 59 0 33 4
62 8 65 5 3 31 7 59 10 115 11 133 33 46 52 -63 14 -77 22 -65 37 5 7 12 22
15 35 4 18 -1 26 -25 38 -21 11 -28 20 -23 32 4 9 9 44 11 77 3 42 10 64 22
72 45 32 57 57 25 51 -12 -2 -19 11 -30 59 l-14 62 -55 -3 -54 -3 0 142 0 142
137 6 c75 4 180 7 235 7 l98 0 0 -251 0 -251 25 -19 c20 -17 23 -24 15 -44 -9
-23 -7 -25 18 -25 16 0 65 -18 111 -40 45 -22 86 -40 89 -40 4 0 30 43 57 95
28 52 54 95 58 95 5 0 17 -5 29 -11 29 -15 31 -6 7 25 -18 23 -20 31 -10 52
l11 24 62 -32 c35 -18 66 -34 69 -36 4 -1 -16 71 -43 160 -28 90 -52 169 -54
176 -2 7 -22 12 -54 12 l-50 0 0 205 0 205 23 0 c19 0 25 8 33 38 8 31 14 38
39 40 16 2 47 -2 69 -8 34 -10 40 -10 49 5 8 14 19 16 78 10 l69 -7 -14 39
c-9 26 -19 37 -30 35 -11 -2 -16 4 -16 18 0 17 -4 20 -20 15 -14 -5 -20 -2
-20 10 0 11 6 15 18 11 9 -3 60 -17 112 -30 52 -14 116 -32 143 -40 42 -12 47
-12 47 1 0 17 -4 18 116 -33 l86 -37 -6 -81 c-16 -198 -14 -189 -61 -219 -25
-16 -49 -25 -59 -21 -9 3 -16 2 -16 -3 0 -5 -14 -7 -32 -5 -29 4 -31 3 -25
-19 4 -13 7 -27 7 -31 0 -4 10 -8 23 -10 18 -2 23 -10 25 -45 2 -28 -1 -43 -8
-43 -8 0 -10 -13 -5 -39 l6 -39 -51 0 c-29 -1 -55 -3 -58 -6 -3 -3 15 -6 41
-6 62 0 75 -7 92 -46 9 -23 21 -34 34 -34 16 0 21 -6 21 -25 0 -14 -4 -25 -10
-25 -17 0 -11 -46 9 -64 19 -17 21 -17 50 0 32 19 36 29 47 111 6 51 7 51 38
47 17 -2 96 -9 174 -15 l144 -10 40 26 c32 21 37 29 27 41 -7 9 -26 13 -52 12
-25 -2 -41 2 -44 10 -3 8 10 12 47 12 34 0 49 4 44 11 -3 6 -8 43 -9 82 -2 40
-15 135 -30 212 -42 222 -41 205 -14 205 13 0 31 5 39 11 13 9 13 10 0 8 -31
-3 -61 1 -57 9 3 4 8 30 12 57 4 28 9 57 10 65 1 8 8 28 14 44 11 28 10 32
-27 69 l-40 40 -50 -53 c-49 -52 -50 -53 -61 -31 -10 18 -15 20 -27 10 -8 -6
-14 -18 -14 -27 0 -10 -7 -6 -20 10 l-20 26 50 121 49 122 -34 15 c-43 18 -55
18 -55 0 0 -7 -11 -25 -25 -40 -14 -15 -25 -31 -25 -37 0 -5 -15 -9 -32 -8
-18 1 -46 -2 -63 -6 l-30 -8 20 23 20 23 -27 -6 c-23 -6 -27 -4 -33 23 -5 21
-12 30 -27 30 -15 0 -19 5 -15 20 3 11 1 20 -4 20 -5 0 -9 -4 -9 -9 0 -5 -7
-12 -16 -15 -22 -8 -95 5 -88 16 3 5 -1 17 -10 27 -15 16 -14 23 14 92 24 58
29 78 21 99 -5 14 -13 40 -16 58 -4 17 -10 32 -14 32 -4 0 -52 -34 -106 -75
-53 -41 -100 -75 -104 -75 -3 1 -19 12 -36 25 l-30 24 33 34 c30 31 32 35 15
42 -10 5 -22 7 -26 6 -5 -1 -6 7 -2 18 3 12 0 21 -10 25 -16 6 -25 0 -70 -41
-29 -27 -41 -29 -53 -7 -8 15 -10 15 -16 -1 -3 -9 -3 -22 0 -27 7 -10 -15 -8
-67 8 -11 3 -19 -6 -25 -28 -12 -39 0 -80 34 -117 12 -13 20 -26 18 -29 -3 -2
-26 3 -52 12 -58 19 -54 19 -54 1 0 -8 -6 -24 -12 -35 -15 -24 -3 -39 34 -42
19 -2 24 -6 18 -14 -6 -6 -7 -13 -4 -17 12 -11 -42 7 -71 25 -39 24 -45 23
-45 -6 0 -14 -5 -28 -12 -32 -7 -4 -8 -3 -4 4 4 7 1 12 -10 12 -15 0 -15 -2 0
-25 9 -13 16 -35 16 -49 0 -35 -18 -78 -30 -71 -5 3 -10 -2 -10 -12 0 -14 -2
-15 -9 -5 -6 10 -10 6 -15 -14 -5 -19 -10 -24 -15 -15 -5 8 -14 -5 -26 -36
-10 -26 -20 -42 -23 -35 -4 13 -45 15 -104 6 -36 -6 -38 -8 -38 -45 0 -22 -4
-39 -10 -39 -5 0 -10 -9 -10 -20 0 -17 -7 -20 -45 -20 l-45 0 6 223 7 223 -31
13 -31 13 20 51 c20 52 39 81 39 61 0 -21 69 -32 210 -36 l144 -3 11 29 c8 23
7 31 -5 38 -13 9 -10 16 20 47 19 20 48 54 63 74 20 27 34 36 47 32 13 -4 23
4 40 32 18 31 20 40 10 62 -7 14 -19 40 -26 58 l-14 31 73 35 c39 19 89 40
109 48 21 7 51 29 67 50 l30 36 -55 54 c-30 29 -52 59 -50 66 10 25 -16 24
-54 -1 -22 -14 -42 -26 -44 -26 -3 0 -42 -22 -87 -50 -45 -27 -86 -50 -91 -50
-4 0 -8 11 -8 25 0 27 38 68 56 61 13 -5 34 13 34 29 0 7 -12 17 -26 24 l-26
11 22 18 c14 11 19 23 15 35 -10 23 -22 22 -57 -8 -35 -29 -53 -32 -43 -7 4 9
11 31 16 47 l8 30 -34 -37 c-29 -31 -39 -36 -70 -33 -20 2 -44 10 -53 18 -9 8
-40 22 -69 30 -49 15 -54 14 -74 -2z m-165 -293 c-6 -11 -46 -64 -77 -103 -4
-5 -14 -19 -22 -30 -13 -19 -14 -19 -21 9 -5 22 -3 32 11 42 10 7 22 11 26 8
5 -3 9 1 9 8 0 7 17 27 37 45 42 36 48 39 37 21z m390 -317 c-1 -1 -50 -6
-108 -8 -58 -3 -106 -9 -106 -13 0 -4 10 -12 23 -18 35 -17 -3 -14 -58 4 -37
13 -69 16 -146 11 l-99 -6 0 47 c0 26 -3 57 -6 69 -6 22 -4 23 67 22 41 0 88
2 104 6 23 5 26 4 15 -4 -12 -8 -4 -11 31 -11 28 0 51 6 58 14 16 19 78 2 101
-27 26 -32 47 -28 82 14 l33 40 6 -68 c4 -37 5 -70 3 -72z m46 39 c0 -11 6
-20 14 -20 16 0 31 -18 23 -26 -5 -5 -67 23 -67 30 0 3 3 11 6 20 9 23 24 20
24 -4z m-132 -69 c8 -4 12 -12 10 -17 -1 -4 13 -8 32 -8 28 -1 36 -5 38 -23 2
-13 8 -23 14 -23 6 0 8 -3 5 -6 -4 -4 -42 4 -87 17 l-80 23 22 23 c24 25 27
26 46 14z m-979 -92 c13 -22 21 -42 20 -44 -16 -15 -79 -2 -79 17 0 5 5 6 10
3 6 -4 10 -3 9 2 -4 22 2 63 9 63 5 0 19 -18 31 -41z m-52 -1 c-3 -8 -6 -5 -6
6 -1 11 2 17 5 13 3 -3 4 -12 1 -19z m626 -104 c35 2 54 -18 38 -38 -10 -11
-9 -16 4 -24 23 -12 77 -204 61 -213 -6 -4 -76 -25 -156 -48 -79 -23 -148 -47
-151 -53 -4 -6 -13 -8 -20 -6 -9 3 -25 -14 -42 -44 l-28 -48 -47 26 c-26 15
-61 36 -79 46 l-32 19 31 52 c17 29 31 57 32 63 1 7 7 18 12 25 6 8 27 42 48
76 37 62 51 74 161 134 65 35 114 50 130 39 6 -4 23 -7 38 -6z m1526 -514 c-6
-16 -17 -30 -25 -30 -17 0 -17 2 -2 35 17 37 40 34 27 -5z m-1059 -30 c0 -5
-4 -10 -10 -10 -5 0 -10 5 -10 10 0 6 5 10 10 10 6 0 10 -4 10 -10z m1030 -57
c-1 -19 -16 -31 -29 -24 -7 5 -10 14 -7 20 8 12 36 15 36 4z m-1770 -378 c0
-23 -27 -44 -65 -51 -22 -4 -37 -3 -33 1 4 4 -13 32 -38 61 -29 33 -44 60 -40
69 4 12 21 8 91 -27 47 -23 85 -47 85 -53z m-239 44 c-9 -22 -10 -22 -10 -3
-1 11 2 24 6 27 12 12 14 0 4 -24z m-56 -69 c5 -8 11 -7 21 1 12 9 12 6 3 -20
-13 -36 -12 -36 -50 -14 -33 20 -36 30 -11 36 28 8 31 7 37 -3z m-15 -134 c0
-22 -23 -36 -40 -25 -13 8 -12 12 4 24 25 19 36 19 36 1z m478 -1224 c7 -5 10
-16 6 -25 -8 -21 -20 -22 -28 -1 -13 33 -4 42 22 26z m502 -103 c0 -3 -16 -13
-35 -22 -19 -9 -35 -21 -35 -26 0 -5 -26 -24 -57 -42 -32 -18 -59 -33 -61 -34
-1 -1 3 -25 10 -54 10 -44 9 -54 -4 -67 -13 -13 -20 -14 -38 -4 -18 10 -24 9
-38 -8 -13 -16 -20 -18 -48 -9 l-33 10 6 64 c3 34 3 63 -1 63 -3 0 -24 -11
-46 -25 -47 -30 -52 -30 -74 -6 -16 17 -15 19 6 33 13 9 55 32 93 52 39 20
124 64 190 99 l120 63 22 -40 c12 -23 22 -44 23 -47z m-398 43 c-6 -2 -9 -9
-5 -15 4 -7 -1 -6 -10 2 -9 7 -17 20 -17 28 0 11 4 12 22 2 14 -8 18 -14 10
-17z m-148 -368 c5 -12 2 -15 -10 -10 -8 3 -23 6 -32 7 -14 0 -13 2 3 9 29 12
32 12 39 -6z m1431 -404 c-3 -5 -12 -10 -18 -10 -7 0 -6 4 3 10 19 12 23 12
15 0z m-256 -102 c50 -76 60 -98 42 -98 -5 0 -14 14 -20 31 -12 36 -1 37 -176
-28 -66 -25 -136 -46 -155 -48 -19 -2 -66 -10 -104 -19 -59 -13 -71 -14 -80
-2 -6 8 -42 25 -81 39 l-70 25 53 7 c29 4 69 15 90 25 20 10 38 14 40 10 4
-10 43 -5 116 16 53 15 66 9 66 -28 0 -9 3 -19 8 -21 4 -3 52 37 107 89 55 51
103 90 106 86 4 -4 29 -42 58 -84z m158 -55 c-20 -20 -30 -24 -38 -16 -8 8 -8
16 0 30 6 10 11 14 11 10 0 -5 7 -1 16 8 12 12 20 13 27 6 8 -8 4 -19 -16 -38z
m193 -30 c-1 -78 -1 -78 -45 -128 l-44 -50 -60 60 -61 59 103 67 c56 37 103
68 105 68 1 1 2 -34 2 -76z"/>
<path d="M2770 4332 c0 -10 22 -32 32 -32 15 0 8 15 -12 28 -11 7 -20 9 -20 4z"/>
<path d="M3442 3958 c-7 -7 -12 -16 -12 -21 0 -5 -9 -22 -21 -38 -11 -16 -18
-29 -15 -29 18 0 116 64 116 75 0 24 -48 33 -68 13z"/>
<path d="M3600 3841 c0 -5 9 -7 20 -4 11 3 20 7 20 9 0 2 -9 4 -20 4 -11 0
-20 -4 -20 -9z"/>
<path d="M3486 3814 c-4 -9 -5 -18 -3 -20 4 -5 97 26 97 32 0 2 -20 4 -44 4
-31 0 -46 -5 -50 -16z"/>
<path d="M933 3298 c-88 -40 -91 -42 -80 -65 l11 -24 23 27 c13 15 23 31 23
36 0 17 17 7 28 -17 6 -14 16 -25 21 -25 13 0 73 88 69 100 -2 5 -44 -10 -95
-32z"/>
<path d="M3089 3289 c-10 -6 -7 -9 14 -9 29 0 35 5 14 13 -8 3 -20 1 -28 -4z"/>
<path d="M2810 3040 c0 -24 2 -24 59 -6 l45 13 -33 6 c-56 12 -71 9 -71 -13z"/>
<path d="M2745 2801 c-3 -5 -1 -12 5 -16 5 -3 10 1 10 9 0 18 -6 21 -15 7z"/>
<path d="M3412 2702 c-14 -31 -10 -37 17 -22 24 12 26 23 8 38 -9 8 -15 4 -25
-16z"/>
<path d="M2855 2660 c-6 -10 44 -80 56 -80 4 0 17 8 29 18 l23 18 -29 0 c-22
-1 -32 6 -42 27 -14 28 -26 34 -37 17z"/>
<path d="M2780 2515 c0 -76 2 -85 21 -96 17 -9 23 -8 30 2 15 23 10 39 -11 39
-13 0 -20 7 -20 20 0 11 5 20 10 20 13 0 13 56 0 81 -21 38 -30 18 -30 -66z"/>
<path d="M2877 2454 c-8 -8 1 -24 14 -24 5 0 9 7 9 15 0 15 -12 20 -23 9z"/>
<path d="M2028 2423 c7 -3 16 -2 19 1 4 3 -2 6 -13 5 -11 0 -14 -3 -6 -6z"/>
<path d="M2525 2380 c-11 -21 -13 -36 -7 -42 6 -6 14 3 22 27 7 20 10 39 7 42
-3 2 -13 -10 -22 -27z"/>
<path d="M3225 2260 c14 -15 21 -17 32 -9 22 19 15 29 -19 29 -30 0 -31 0 -13
-20z"/>
<path d="M3455 1819 c-9 -14 -2 -20 14 -10 8 6 9 11 3 15 -6 3 -14 1 -17 -5z"/>
<path d="M983 828 c-26 -32 -263 -421 -259 -425 2 -3 16 16 31 41 30 51 36 56
27 24 -3 -14 -2 -19 6 -14 7 4 12 18 12 32 0 13 4 24 8 24 4 0 18 20 30 45 12
26 33 51 48 57 20 9 25 17 21 37 -4 18 9 47 45 104 28 43 48 80 46 83 -3 2
-10 -1 -15 -8z"/>
<path d="M885 581 c-3 -5 -2 -12 3 -15 5 -3 9 1 9 9 0 17 -3 19 -12 6z"/>
<path d="M870 489 c0 -11 4 -18 10 -14 5 3 7 12 3 20 -7 21 -13 19 -13 -6z"/>
</g>
</svg>
